<svg width="120" height="120" viewBox="0 0 120 120" fill="none" xmlns="http://www.w3.org/2000/svg">
<path d="M60 0C26.9166 0 0 26.9166 0 60C0 93.0834 26.9166 120 60 120C93.0834 120 120 93.0834 120 60C120 26.9166 93.0834 0 60 0Z" fill="#303C42"/>
<path d="M115 60C115 64.0238 114.538 67.9371 113.714 71.7171C110.367 53.1633 100.624 34.7067 87.7957 23.3403C90.9666 20.7987 93.6692 18.8824 95.24 17.8247C107.304 27.9223 115 43.0744 115 60Z" fill="white"/>
<path d="M96.9183 100.649C93.004 104.207 88.5869 107.2 83.7712 109.521C82.9551 99.5259 79.1979 72.1049 62.7066 59.0081C63.622 52.6699 66.5841 46.6389 70.4447 41.2089C87.5311 58.6706 97.4268 87.4136 96.9183 100.649Z" fill="#F0C419"/>
<path d="M15.1788 91.7628C12.2538 87.6474 9.90025 83.116 8.18674 78.2733C18.2117 82.9186 33.559 85.9913 48.9966 85.9913C57.2806 85.9913 65.5254 85.0561 72.9776 83.0771C74.7893 87.9493 76.0749 92.8838 76.9627 97.34C58.6303 103.774 33.7078 101.596 15.1788 91.7628Z" fill="#FFCA28"/>
<path d="M5.21174 55.8195C11.9648 59.0162 27.9058 65.6691 43.7182 65.6691C49.1362 65.6691 54.5158 64.8226 59.5146 62.8473C64.5412 66.8091 68.2804 72.3866 71.0507 78.4412C47.3261 84.5251 17.3943 78.6779 6.25424 71.5951C5.44776 67.853 4.99963 63.9798 4.99963 60.0003C4.99987 58.5889 5.10674 57.204 5.21174 55.8195Z" fill="white"/>
<path d="M57.7865 58.1534C51.84 60.5281 45.1371 60.9781 38.5052 60.35C45.0977 36.7636 65.1239 13.7663 76.8293 7.65729C81.9267 9.30026 86.7014 11.6606 91.0314 14.6318C82.8093 20.3135 60.8852 37.294 57.7865 58.1534Z" fill="#1565C0"/>
<path d="M70.0495 5.96316C56.174 15.7514 39.2573 38.4079 33.5022 59.6967C28.3581 58.825 23.4274 57.4631 19.1146 55.9975C22.7249 36.895 37.1521 16.3736 54.9398 5.25628C56.6085 5.103 58.2918 4.99988 59.9999 4.99988C63.4359 4.99988 66.786 5.3573 70.0495 5.96316Z" fill="#FFC000"/>
<path d="M43.315 7.60425C28.9087 19.7786 17.7853 37.4561 14.3538 54.2585C10.5754 52.7866 7.57097 51.4082 5.86707 50.5755C9.39394 30.2774 24.0377 13.758 43.315 7.60425Z" fill="white"/>
<path d="M23.1461 100.708C32.9254 104.202 43.635 106.03 54.0089 106.03C62.4333 106.03 70.5726 104.77 77.8401 102.341C78.4596 106.371 78.7699 109.68 78.9019 111.583C72.997 113.754 66.649 115 60.0002 115C45.8156 115 32.9107 109.556 23.1461 100.708Z" fill="#1565C0"/>
<path opacity="0.1" d="M23.1461 100.708C32.9254 104.202 43.635 106.03 54.0089 106.03C62.4333 106.03 70.5726 104.77 77.8401 102.341C78.4596 106.371 78.7699 109.68 78.9019 111.583C72.997 113.754 66.649 115 60.0002 115C45.8156 115 32.9107 109.556 23.1461 100.708Z" fill="black"/>
<path d="M101.771 95.6847C100.217 78.7741 89.0576 52.8215 73.5115 37.2032C76.8201 33.2057 80.4445 29.6325 83.8544 26.6402C98.595 39.3049 109.175 61.9823 109.918 82.9488C107.782 87.5742 105.045 91.8576 101.771 95.6847Z" fill="#1565C0"/>
<path opacity="0.1" d="M104.828 45.9005C109.006 53.9775 112.11 62.8259 113.714 71.7171C114.538 67.9369 115 64.0235 115 60C115 46.6667 110.174 34.4778 102.25 24.9497C104.023 30.4849 105 36.376 105 42.4999C105 43.6481 104.894 44.7694 104.828 45.9005Z" fill="black"/>
<path opacity="0.1" d="M80.3454 89.6586C82.5274 97.806 83.4232 105.255 83.7713 109.521C88.587 107.199 93.004 104.207 96.9183 100.649C97.1276 95.2028 95.5493 87.1178 92.4591 78.287C88.9917 82.637 84.9155 86.4697 80.3454 89.6586Z" fill="black"/>
<path opacity="0.1" d="M13.2565 88.6133C13.8994 89.6621 14.4671 90.7613 15.1789 91.7628C33.7079 101.596 58.6304 103.774 76.9627 97.3402C76.655 95.7957 76.2305 94.1419 75.822 92.5051C67.4569 97.254 57.8065 100 47.5001 100C34.6522 100 22.8293 95.7343 13.2565 88.6133Z" fill="black"/>
<path opacity="0.1" d="M101.771 95.6848C105.045 91.8577 107.782 87.5742 109.918 82.9488C109.589 73.6685 107.248 64.0927 103.556 55.1585C102.085 61.7006 99.4943 67.8066 96.0026 73.2945C99.1373 81.3591 101.174 89.19 101.771 95.6848Z" fill="black"/>
<path d="M60 0C26.9166 0 0 26.9166 0 60C0 93.0834 26.9166 120 60 120C93.0834 120 120 93.0834 120 60C120 26.9166 93.0834 0 60 0Z" fill="url(#paint0_linear)"/>
<defs>
<linearGradient id="paint0_linear" x1="5.624" y1="34.652" x2="114.377" y2="85.3579" gradientUnits="userSpaceOnUse">
<stop stop-color="white" stop-opacity="0.2"/>
<stop offset="1" stop-color="white" stop-opacity="0"/>
</linearGradient>
</defs>
</svg>
